<svg width="182" height="45" viewBox="0 0 182 45" fill="none" xmlns="http://www.w3.org/2000/svg">
<g clip-path="url(#clip0_107_3)">
<path d="M0.976807 26.4893C0.976807 26.4893 8.27196 13.5701 18.9546 29.2084C21.454 32.869 23.2778 42.402 30.3097 42.8105C30.3097 42.8105 20.6071 49.6659 14.3587 37.385C12.4017 33.5265 9.49311 25.2733 0.976807 26.4893Z" fill="white"/>
<path d="M14.7647 15.4818C14.7647 15.4818 22.7735 10.9627 30.3066 29.8978C32.6093 35.6903 39.6317 50.301 51.5259 42.8201C51.5259 42.8201 45.3631 41.6297 37.3353 24.051C34.82 18.5361 24.1057 2.83394 14.7647 15.4818Z" fill="white"/>
<path d="M27.1982 4.33075C27.1982 4.33075 35.0389 0.114796 44.3672 19.0116C44.3672 19.0116 62.3419 56.0073 71.1309 37.6467C71.1309 37.6467 63.1538 37.6467 54.5043 19.9627C51.0344 12.8808 41.9345 -9.25542 27.1982 4.33075Z" fill="white"/>
<path d="M48.2875 0.928711C48.2875 0.928711 58.0186 3.92233 57.749 16.2989C59.8706 15.6838 62.1473 15.9278 64.0926 16.9787C64.0926 16.9787 64.1021 2.01701 48.2875 0.928711Z" fill="white"/>
<path d="M65.3392 32.0105C68.8059 35.2626 71.1467 35.4701 71.188 35.4733C71.8223 33.6765 75.8252 20.7126 59.7695 18.2009C59.7758 18.1914 69.0407 24.5743 65.3392 32.0105Z" fill="white"/>
<path d="M8.41158 43.7711C8.41158 43.7711 1.65246 36.2903 5.55695 28.4041C5.55695 28.4041 0.0158081 27.1786 0.0158081 31.1233C0.0316671 31.1233 -0.104723 40.1009 8.41158 43.7711Z" fill="white"/>
<path d="M18.8183 25.2734C18.8183 25.2734 18.4313 19.0819 20.4423 18.201C20.4423 18.201 14.7647 15.0734 13.2772 20.6521C13.2772 20.6521 16.1159 21.8744 18.8183 25.2734Z" fill="white"/>
<path d="M30.9853 12.217C30.9853 12.217 31.5245 9.22656 34.0937 7.45848C34.0937 7.45848 27.4709 3.23933 24.0898 8.95209C24.1056 8.95209 28.8221 9.63507 30.9853 12.217Z" fill="white"/>
</g>
<path d="M102.2 13.5957V29H99.998V22.4043H91.1787V29H88.9766V13.5957H91.1787V20.2021H99.998V13.5957H102.2ZM119.366 26.7979C119.366 27.0986 119.309 27.3851 119.194 27.6572C119.08 27.9222 118.922 28.1549 118.722 28.3555C118.521 28.556 118.285 28.7135 118.013 28.8281C117.748 28.9427 117.465 29 117.164 29H108.366C108.065 29 107.779 28.9427 107.507 28.8281C107.242 28.7135 107.009 28.556 106.809 28.3555C106.608 28.1549 106.451 27.9222 106.336 27.6572C106.221 27.3851 106.164 27.0986 106.164 26.7979V15.7979C106.164 15.4971 106.221 15.2142 106.336 14.9492C106.451 14.6771 106.608 14.4443 106.809 14.251C107.009 14.0505 107.242 13.8929 107.507 13.7783C107.779 13.6566 108.065 13.5957 108.366 13.5957H117.164C117.465 13.5957 117.748 13.6566 118.013 13.7783C118.285 13.8929 118.521 14.0505 118.722 14.251C118.922 14.4443 119.08 14.6771 119.194 14.9492C119.309 15.2142 119.366 15.4971 119.366 15.7979V26.7979ZM108.366 15.7979V26.7979H117.164V15.7979H108.366ZM125.532 22.4043C125.231 22.4043 124.945 22.347 124.673 22.2324C124.408 22.1107 124.175 21.9531 123.975 21.7598C123.774 21.5592 123.617 21.3265 123.502 21.0615C123.387 20.7894 123.33 20.5029 123.33 20.2021V15.7979C123.33 15.4971 123.387 15.2142 123.502 14.9492C123.617 14.6771 123.774 14.4443 123.975 14.251C124.175 14.0505 124.408 13.8929 124.673 13.7783C124.945 13.6566 125.231 13.5957 125.532 13.5957H133.009C133.31 13.5957 133.592 13.6566 133.857 13.7783C134.13 13.8929 134.366 14.0505 134.566 14.251C134.767 14.4443 134.924 14.6771 135.039 14.9492C135.154 15.2142 135.211 15.4971 135.211 15.7979V17.7852H133.009V15.7979H125.532V20.2021H133.009C133.31 20.2021 133.592 20.2594 133.857 20.374C134.13 20.4886 134.366 20.6462 134.566 20.8467C134.767 21.0472 134.924 21.2835 135.039 21.5557C135.154 21.8206 135.211 22.1035 135.211 22.4043V26.7979C135.211 27.0986 135.154 27.3851 135.039 27.6572C134.924 27.9222 134.767 28.1549 134.566 28.3555C134.366 28.556 134.13 28.7135 133.857 28.8281C133.592 28.9427 133.31 29 133.009 29H125.317C125.017 29 124.73 28.9427 124.458 28.8281C124.193 28.7135 123.96 28.556 123.76 28.3555C123.559 28.1549 123.402 27.9222 123.287 27.6572C123.173 27.3851 123.115 27.0986 123.115 26.7979V24.8213H125.317V26.7979H133.009V22.4043H125.532ZM137.864 13.5957H150.186V15.7979H145.126V29H142.924V15.7979H137.864V13.5957ZM152.828 13.5957H164.054V15.7979H155.03V20.2021H162.732V22.4043H155.03V26.7979H164.054V29H152.828V13.5957ZM179.522 19.0957C179.522 21.2441 178.606 22.4688 176.772 22.7695L179.673 29H177.234L174.377 22.8447H169.554V29H167.352V13.5957H175.784C178.276 13.5957 179.522 14.8454 179.522 17.3447V19.0957ZM169.554 20.6426H175.666C176.253 20.6426 176.676 20.5137 176.934 20.2559C177.191 19.998 177.32 19.5755 177.32 18.9883V17.4521C177.32 16.8649 177.191 16.4424 176.934 16.1846C176.676 15.9268 176.253 15.7979 175.666 15.7979H169.554V20.6426Z" fill="white"/>
<defs>
<clipPath id="clip0_107_3">
<rect width="72" height="45" fill="white"/>
</clipPath>
</defs>
</svg>
