<svg width="98" height="18" viewBox="0 0 98 18" fill="none" xmlns="http://www.w3.org/2000/svg">
<path d="M16.4603 6.88426C16.4131 6.74541 16.3263 6.6234 16.2106 6.53331C16.095 6.44321 15.9554 6.38896 15.8093 6.37726L11.5335 6.03751L9.68325 1.94176C9.62433 1.80985 9.52848 1.6978 9.40729 1.61915C9.28609 1.54051 9.14472 1.49861 9.00024 1.49854C8.85577 1.49846 8.71435 1.54019 8.59307 1.61871C8.47179 1.69722 8.37582 1.80916 8.31675 1.94101L6.4665 6.03751L2.19075 6.37726C2.04709 6.38864 1.90975 6.44117 1.79517 6.52856C1.68058 6.61595 1.5936 6.7345 1.54462 6.87003C1.49565 7.00556 1.48675 7.15234 1.51901 7.29279C1.55126 7.43324 1.6233 7.56143 1.7265 7.66201L4.88625 10.7423L3.76875 15.5813C3.73482 15.7277 3.74569 15.881 3.79997 16.0212C3.85424 16.1615 3.9494 16.2821 4.0731 16.3676C4.19681 16.453 4.34334 16.4994 4.49369 16.5005C4.64404 16.5016 4.79126 16.4576 4.91625 16.374L9 13.6515L13.0838 16.374C13.2115 16.4588 13.3622 16.5025 13.5155 16.4991C13.6688 16.4958 13.8174 16.4455 13.9413 16.3552C14.0652 16.2649 14.1585 16.1387 14.2086 15.9938C14.2587 15.8489 14.2632 15.6921 14.2215 15.5445L12.8498 10.7445L16.2518 7.68301C16.4745 7.48201 16.5563 7.16851 16.4603 6.88426Z" fill="url(#paint0_linear_1_246)"/>
<path d="M36.4603 6.88426C36.4131 6.74541 36.3263 6.6234 36.2106 6.53331C36.095 6.44321 35.9554 6.38896 35.8093 6.37726L31.5335 6.03751L29.6833 1.94176C29.6243 1.80985 29.5285 1.6978 29.4073 1.61915C29.2861 1.54051 29.1447 1.49861 29.0002 1.49854C28.8558 1.49846 28.7144 1.54019 28.5931 1.61871C28.4718 1.69722 28.3758 1.80916 28.3168 1.94101L26.4665 6.03751L22.1908 6.37726C22.0471 6.38864 21.9098 6.44117 21.7952 6.52856C21.6806 6.61595 21.5936 6.7345 21.5446 6.87003C21.4956 7.00556 21.4868 7.15234 21.519 7.29279C21.5513 7.43324 21.6233 7.56143 21.7265 7.66201L24.8863 10.7423L23.7688 15.5813C23.7348 15.7277 23.7457 15.881 23.8 16.0212C23.8542 16.1615 23.9494 16.2821 24.0731 16.3676C24.1968 16.453 24.3433 16.4994 24.4937 16.5005C24.644 16.5016 24.7913 16.4576 24.9163 16.374L29 13.6515L33.0838 16.374C33.2115 16.4588 33.3622 16.5025 33.5155 16.4991C33.6688 16.4958 33.8174 16.4455 33.9413 16.3552C34.0652 16.2649 34.1585 16.1387 34.2086 15.9938C34.2587 15.8489 34.2632 15.6921 34.2215 15.5445L32.8498 10.7445L36.2518 7.68301C36.4745 7.48201 36.5563 7.16851 36.4603 6.88426Z" fill="url(#paint1_linear_1_246)"/>
<path d="M56.4603 6.88426C56.4131 6.74541 56.3263 6.6234 56.2106 6.53331C56.095 6.44321 55.9554 6.38896 55.8093 6.37726L51.5335 6.03751L49.6833 1.94176C49.6243 1.80985 49.5285 1.6978 49.4073 1.61915C49.2861 1.54051 49.1447 1.49861 49.0002 1.49854C48.8558 1.49846 48.7144 1.54019 48.5931 1.61871C48.4718 1.69722 48.3758 1.80916 48.3168 1.94101L46.4665 6.03751L42.1908 6.37726C42.0471 6.38864 41.9098 6.44117 41.7952 6.52856C41.6806 6.61595 41.5936 6.7345 41.5446 6.87003C41.4956 7.00556 41.4868 7.15234 41.519 7.29279C41.5513 7.43324 41.6233 7.56143 41.7265 7.66201L44.8863 10.7423L43.7688 15.5813C43.7348 15.7277 43.7457 15.881 43.8 16.0212C43.8542 16.1615 43.9494 16.2821 44.0731 16.3676C44.1968 16.453 44.3433 16.4994 44.4937 16.5005C44.644 16.5016 44.7913 16.4576 44.9162 16.374L49 13.6515L53.0838 16.374C53.2115 16.4588 53.3622 16.5025 53.5155 16.4991C53.6688 16.4958 53.8174 16.4455 53.9413 16.3552C54.0652 16.2649 54.1585 16.1387 54.2086 15.9938C54.2587 15.8489 54.2632 15.6921 54.2215 15.5445L52.8498 10.7445L56.2518 7.68301C56.4745 7.48201 56.5563 7.16851 56.4603 6.88426Z" fill="url(#paint2_linear_1_246)"/>
<path d="M76.4602 6.88426C76.4131 6.74541 76.3263 6.6234 76.2106 6.53331C76.095 6.44321 75.9554 6.38896 75.8093 6.37726L71.5335 6.03751L69.6833 1.94176C69.6243 1.80985 69.5285 1.6978 69.4073 1.61915C69.2861 1.54051 69.1447 1.49861 69.0002 1.49854C68.8558 1.49846 68.7144 1.54019 68.5931 1.61871C68.4718 1.69722 68.3758 1.80916 68.3167 1.94101L66.4665 6.03751L62.1907 6.37726C62.0471 6.38864 61.9098 6.44117 61.7952 6.52856C61.6806 6.61595 61.5936 6.7345 61.5446 6.87003C61.4956 7.00556 61.4868 7.15234 61.519 7.29279C61.5513 7.43324 61.6233 7.56143 61.7265 7.66201L64.8862 10.7423L63.7687 15.5813C63.7348 15.7277 63.7457 15.881 63.8 16.0212C63.8542 16.1615 63.9494 16.2821 64.0731 16.3676C64.1968 16.453 64.3433 16.4994 64.4937 16.5005C64.644 16.5016 64.7913 16.4576 64.9162 16.374L69 13.6515L73.0837 16.374C73.2115 16.4588 73.3622 16.5025 73.5155 16.4991C73.6688 16.4958 73.8174 16.4455 73.9413 16.3552C74.0652 16.2649 74.1585 16.1387 74.2086 15.9938C74.2587 15.8489 74.2632 15.6921 74.2215 15.5445L72.8497 10.7445L76.2517 7.68301C76.4745 7.48201 76.5563 7.16851 76.4602 6.88426Z" fill="url(#paint3_linear_1_246)"/>
<path d="M96.4603 6.88426C96.4131 6.74541 96.3263 6.6234 96.2106 6.53331C96.095 6.44321 95.9554 6.38896 95.8093 6.37726L91.5335 6.03751L89.6833 1.94176C89.6243 1.80985 89.5285 1.6978 89.4073 1.61915C89.2861 1.54051 89.1447 1.49861 89.0002 1.49854C88.8558 1.49846 88.7144 1.54019 88.5931 1.61871C88.4718 1.69722 88.3758 1.80916 88.3168 1.94101L86.4665 6.03751L82.1908 6.37726C82.0471 6.38864 81.9098 6.44117 81.7952 6.52856C81.6806 6.61595 81.5936 6.7345 81.5446 6.87003C81.4956 7.00556 81.4868 7.15234 81.519 7.29279C81.5513 7.43324 81.6233 7.56143 81.7265 7.66201L84.8863 10.7423L83.7688 15.5813C83.7348 15.7277 83.7457 15.881 83.8 16.0212C83.8542 16.1615 83.9494 16.2821 84.0731 16.3676C84.1968 16.453 84.3433 16.4994 84.4937 16.5005C84.644 16.5016 84.7913 16.4576 84.9163 16.374L89 13.6515L93.0838 16.374C93.2115 16.4588 93.3622 16.5025 93.5155 16.4991C93.6688 16.4958 93.8174 16.4455 93.9413 16.3552C94.0652 16.2649 94.1585 16.1387 94.2086 15.9938C94.2587 15.8489 94.2632 15.6921 94.2215 15.5445L92.8498 10.7445L96.2518 7.68301C96.4745 7.48201 96.5563 7.16851 96.4603 6.88426Z" fill="url(#paint4_linear_1_246)"/>
<defs>
<linearGradient id="paint0_linear_1_246" x1="8.99994" y1="1.49854" x2="8.99994" y2="16.5005" gradientUnits="userSpaceOnUse">
<stop stop-color="#6BE3FB"/>
<stop offset="1" stop-color="#3CA0EC"/>
</linearGradient>
<linearGradient id="paint1_linear_1_246" x1="28.9999" y1="1.49854" x2="28.9999" y2="16.5005" gradientUnits="userSpaceOnUse">
<stop stop-color="#6BE3FB"/>
<stop offset="1" stop-color="#3CA0EC"/>
</linearGradient>
<linearGradient id="paint2_linear_1_246" x1="48.9999" y1="1.49854" x2="48.9999" y2="16.5005" gradientUnits="userSpaceOnUse">
<stop stop-color="#6BE3FB"/>
<stop offset="1" stop-color="#3CA0EC"/>
</linearGradient>
<linearGradient id="paint3_linear_1_246" x1="68.9999" y1="1.49854" x2="68.9999" y2="16.5005" gradientUnits="userSpaceOnUse">
<stop stop-color="#6BE3FB"/>
<stop offset="1" stop-color="#3CA0EC"/>
</linearGradient>
<linearGradient id="paint4_linear_1_246" x1="88.9999" y1="1.49854" x2="88.9999" y2="16.5005" gradientUnits="userSpaceOnUse">
<stop stop-color="#6BE3FB"/>
<stop offset="1" stop-color="#3CA0EC"/>
</linearGradient>
</defs>
</svg>
